<?xml version="1.0" encoding="UTF-8" standalone="no"?>
<svg
   xmlns:dc="http://purl.org/dc/elements/1.1/"
   xmlns:cc="http://creativecommons.org/ns#"
   xmlns:rdf="http://www.w3.org/1999/02/22-rdf-syntax-ns#"
   xmlns:svg="http://www.w3.org/2000/svg"
   xmlns="http://www.w3.org/2000/svg"
   xmlns:sodipodi="http://sodipodi.sourceforge.net/DTD/sodipodi-0.dtd"
   xmlns:inkscape="http://www.inkscape.org/namespaces/inkscape"
   inkscape:version="1.0beta2 (2b71d25, 2019-12-03)"
   sodipodi:docname="Nowcoder_S1_8_bronze_A.svg"
   id="svg939"
   version="1.2"
   viewBox="0 0 337.84391 316.48048"
   height="4.3955622in"
   width="4.6922765in">
  <metadata
     id="metadata943">
    <rdf:RDF>
      <cc:Work
         rdf:about="">
        <dc:format>image/svg+xml</dc:format>
        <dc:type
           rdf:resource="http://purl.org/dc/dcmitype/StillImage" />
        <dc:title></dc:title>
      </cc:Work>
    </rdf:RDF>
  </metadata>
  <sodipodi:namedview
     inkscape:current-layer="svg939"
     inkscape:window-maximized="0"
     inkscape:window-y="23"
     inkscape:window-x="0"
     inkscape:cy="256.63327"
     inkscape:cx="188.95795"
     inkscape:zoom="0.4452563"
     fit-margin-bottom="0"
     fit-margin-right="0"
     fit-margin-left="0"
     fit-margin-top="0"
     units="in"
     showgrid="false"
     id="namedview941"
     inkscape:window-height="758"
     inkscape:window-width="1242"
     inkscape:pageshadow="2"
     inkscape:pageopacity="0"
     guidetolerance="10"
     gridtolerance="10"
     objecttolerance="10"
     borderopacity="1"
     inkscape:document-rotation="0"
     bordercolor="#666666"
     pagecolor="#ffffff" />
  <defs
     id="defs902">
    <clipPath
       id="clip1">
      <path
         inkscape:connector-curvature="0"
         id="path899"
         d="M 0,0 H 959.76172 V 540 H 0 Z m 0,0" />
    </clipPath>
  </defs>
  <path
     style="fill:none;stroke:#000000;stroke-width:1.5;stroke-linecap:butt;stroke-linejoin:miter;stroke-miterlimit:8;stroke-opacity:1"
     d="M 0,133.88282 H 337.84392"
     id="path910"
     inkscape:connector-curvature="0" />
  <path
     style="fill:none;stroke:#000000;stroke-width:1;stroke-linecap:butt;stroke-linejoin:miter;stroke-miterlimit:8;stroke-opacity:1"
     d="M 37.17578,68.80863 78.05861,3.73047 h 64.49612 l 40.88285,65.07816 -40.88285,65.07426 H 78.05861 Z m 0,0"
     id="path912"
     inkscape:connector-curvature="0" />
  <path
     style="fill:none;stroke:#000000;stroke-width:1;stroke-linecap:butt;stroke-linejoin:miter;stroke-miterlimit:8;stroke-dasharray:4, 3;stroke-opacity:1"
     d="M 97.82812,68.80863 138.71096,3.73047 h 64.49612 l 40.88283,65.07816 -40.88283,65.07426 h -64.49612 z m 0,0"
     id="path914"
     inkscape:connector-curvature="0" />
  <path
     style="fill:none;stroke:#000000;stroke-width:1.5;stroke-linecap:butt;stroke-linejoin:miter;stroke-miterlimit:8;stroke-opacity:1"
     d="M 0,315.73047 H 337.84392"
     id="path916"
     inkscape:connector-curvature="0" />
  <path
     style="fill:none;stroke:#000000;stroke-width:1;stroke-linecap:butt;stroke-linejoin:miter;stroke-miterlimit:8;stroke-opacity:1"
     d="m 37.17578,250.65238 40.88283,-65.07816 h 64.49612 l 40.88285,65.07816 -40.88285,65.07816 H 78.05861 Z m 0,0"
     id="path918"
     inkscape:connector-curvature="0" />
  <path
     style="fill:none;stroke:#000000;stroke-width:1;stroke-linecap:butt;stroke-linejoin:miter;stroke-miterlimit:8;stroke-dasharray:4, 3;stroke-opacity:1"
     d="m 97.82812,250.65238 40.88284,-65.07816 h 64.49612 l 40.88283,65.07816 -40.88283,65.07816 h -64.49612 z m 0,0"
     id="path920"
     inkscape:connector-curvature="0" />
  <path
     style="fill:#ff0000;fill-opacity:1;fill-rule:nonzero;stroke:#ff0000;stroke-width:1;stroke-linecap:butt;stroke-linejoin:miter;stroke-miterlimit:8;stroke-opacity:1"
     d="m 36.5039,68.23438 c 0,-1.78516 1.24219,-3.23047 2.76954,-3.23047 1.53125,0 2.76953,1.44531 2.76953,3.23047 0,1.78125 -1.23828,3.23047 -2.76953,3.23047 -1.52735,0 -2.76954,-1.44922 -2.76954,-3.23047 z m 0,0"
     id="path922"
     inkscape:connector-curvature="0" />
  <path
     style="fill:#ff0000;fill-opacity:1;fill-rule:nonzero;stroke:#ff0000;stroke-width:1;stroke-linecap:butt;stroke-linejoin:miter;stroke-miterlimit:8;stroke-opacity:1"
     d="M 138,3.73047 C 138,1.94532 139.23828,0.5 140.76953,0.5 c 1.52734,0 2.76953,1.44532 2.76953,3.23047 0,1.78516 -1.24219,3.23047 -2.76953,3.23047 C 139.23828,6.96094 138,5.51563 138,3.73047 Z m 0,0"
     id="path924"
     inkscape:connector-curvature="0" />
  <path
     style="fill:none;stroke:#ff0000;stroke-width:0.5;stroke-linecap:butt;stroke-linejoin:miter;stroke-miterlimit:8;stroke-dasharray:2, 1.5;stroke-opacity:1"
     d="m 36.5039,68.23438 102.20708,65.64847"
     id="path926"
     inkscape:connector-curvature="0" />
  <path
     style="fill:none;stroke:#ff0000;stroke-width:0.5;stroke-linecap:butt;stroke-linejoin:miter;stroke-miterlimit:8;stroke-dasharray:2, 1.5;stroke-opacity:1"
     d="m 140.73828,4.0625 -2.02735,129.82039"
     id="path928"
     inkscape:connector-curvature="0" />
  <path
     style="fill:#ff0000;fill-opacity:1;fill-rule:nonzero;stroke:#ff0000;stroke-width:1;stroke-linecap:butt;stroke-linejoin:miter;stroke-miterlimit:8;stroke-opacity:1"
     d="m 74.07422,185.87891 c 0,-1.78516 1.23828,-3.23047 2.76953,-3.23047 1.53125,0 2.76953,1.44531 2.76953,3.23047 0,1.78516 -1.23828,3.23047 -2.76953,3.23047 -1.53125,0 -2.76953,-1.44531 -2.76953,-3.23047 z m 0,0"
     id="path930"
     inkscape:connector-curvature="0" />
  <path
     style="fill:#ff0000;fill-opacity:1;fill-rule:nonzero;stroke:#ff0000;stroke-width:1;stroke-linecap:butt;stroke-linejoin:miter;stroke-miterlimit:8;stroke-opacity:1"
     d="m 200.98047,186.6836 c 0,-1.78125 1.23828,-3.23047 2.76953,-3.23047 1.52734,0 2.76953,1.44922 2.76953,3.23047 0,1.78516 -1.24219,3.23047 -2.76953,3.23047 -1.53125,0 -2.76953,-1.44531 -2.76953,-3.23047 z m 0,0"
     id="path932"
     inkscape:connector-curvature="0" />
  <path
     style="fill:none;stroke:#ff0000;stroke-width:0.5;stroke-linecap:butt;stroke-linejoin:miter;stroke-miterlimit:8;stroke-dasharray:2, 1.5;stroke-opacity:1"
     d="m 78.9414,185.87891 62.94144,129.85163"
     id="path934"
     inkscape:connector-curvature="0" />
  <path
     style="fill:none;stroke:#ff0000;stroke-width:0.5;stroke-linecap:butt;stroke-linejoin:miter;stroke-miterlimit:8;stroke-dasharray:2, 1.5;stroke-opacity:1"
     d="m 205.09375,183.45313 -65.0391,132.27741"
     id="path936"
     inkscape:connector-curvature="0" />
</svg>
